<svg width="31" height="30" viewBox="0 0 31 30" fill="none" xmlns="http://www.w3.org/2000/svg">
<path d="M13.9078 4.78338L13.9076 4.78399C13.6579 5.63775 13.5342 6.53241 13.5342 7.46598C13.5342 10.0971 14.4608 12.3497 16.3056 14.1945C18.1504 16.0394 20.4031 16.966 23.0342 16.966C23.9444 16.966 24.8464 16.8337 25.7389 16.5706L25.7391 16.5705C26.6291 16.3077 27.4324 15.9403 28.1448 15.4653C28.3729 15.3133 28.5796 15.2483 28.7706 15.2415C28.9615 15.2348 29.1729 15.285 29.4123 15.4208C29.6433 15.5524 29.7835 15.706 29.8648 15.8751C29.9474 16.047 29.9877 16.2734 29.9539 16.5774L29.9534 16.5822C29.5771 20.2909 28.0046 23.355 25.2256 25.7988C22.4408 28.2469 19.2174 29.466 15.5342 29.466C11.4691 29.466 8.04837 28.0648 5.24105 25.2574C2.43488 22.4513 1.03416 19.0311 1.03416 14.966C1.03416 11.2526 2.24091 8.04449 4.65831 5.31767C7.07376 2.59415 10.1546 1.00392 13.9274 0.545716C14.1986 0.513216 14.4119 0.54838 14.5851 0.628296C14.7583 0.708278 14.9241 0.84818 15.0765 1.07667C15.2227 1.29595 15.2782 1.49535 15.2739 1.68379C15.2695 1.8756 15.2021 2.09867 15.0322 2.35922C14.534 3.12122 14.1586 3.92961 13.9078 4.78338ZM22.4022 25.0237L22.4023 25.0236C24.4253 23.6214 25.9041 21.7877 26.8301 19.5308L27.2053 18.6161L26.2462 18.8559C25.7059 18.991 25.1661 19.0989 24.6267 19.1798C24.0954 19.2595 23.5646 19.2993 23.0342 19.2993C19.7493 19.2993 16.9668 18.1503 14.6578 15.8425C14.6578 15.8425 14.6577 15.8425 14.6577 15.8424C14.6577 15.8424 14.6577 15.8424 14.6576 15.8423C12.3498 13.5334 11.2008 10.7508 11.2008 7.46598C11.2008 6.93553 11.2406 6.40477 11.3203 5.87349C11.4012 5.33407 11.5092 4.79423 11.6442 4.25392L11.884 3.29484L10.9694 3.67007C8.71238 4.59602 6.87922 6.07493 5.47812 8.09797C4.07041 10.129 3.3675 12.4234 3.3675 14.966C3.3675 18.3208 4.55903 21.198 6.93061 23.5695C9.30219 25.9411 12.1794 27.1327 15.5342 27.1327C18.0767 27.1327 20.3712 26.4303 22.4022 25.0237Z" fill="#2B2D33" stroke="#2B2D33"/>
</svg>
