<svg width="20" height="20" viewBox="0 0 20 20" fill="none" xmlns="http://www.w3.org/2000/svg">
<path fill-rule="evenodd" clip-rule="evenodd" d="M9.34814 0.380793C9.49733 0.64864 9.4675 0.981023 9.27303 1.21775C8.42749 2.24697 7.92015 3.56494 7.92015 5.00392C7.92015 8.29156 10.5733 10.9567 13.8461 10.9567C15.8 10.9567 17.5331 10.0075 18.6138 8.53995C18.7955 8.29308 19.1096 8.18374 19.4045 8.26466C19.6994 8.34559 19.9145 8.60016 19.9461 8.90558C19.9817 9.25062 20 9.60061 20 9.95466C20 15.5025 15.5228 20 10 20C4.47715 20 0 15.5025 0 9.95466C0 4.88418 3.73907 0.692226 8.59878 0.007245C8.90136 -0.0354031 9.19895 0.112946 9.34814 0.380793ZM7.11129 1.90187C3.82859 3.09031 1.48148 6.24761 1.48148 9.95466C1.48148 14.6806 5.29535 18.5118 10 18.5118C14.4165 18.5118 18.048 15.1356 18.4763 10.8123C17.2084 11.8334 15.5983 12.4449 13.8461 12.4449C9.75507 12.4449 6.43867 9.11347 6.43867 5.00392C6.43867 3.89725 6.67953 2.84633 7.11129 1.90187Z" fill="#2B2D33"/>
</svg>
