<svg width="32" height="33" viewBox="0 0 32 33" fill="none" xmlns="http://www.w3.org/2000/svg">
<path fill-rule="evenodd" clip-rule="evenodd" d="M15.12 3.51407C15.3214 3.87566 15.2811 4.32438 15.0186 4.64396C13.8771 6.03341 13.1922 7.81267 13.1922 9.7553C13.1922 14.1936 16.7739 17.7916 21.1922 17.7916C23.83 17.7916 26.1697 16.5102 27.6286 14.5289C27.874 14.1957 28.298 14.048 28.6961 14.1573C29.0942 14.2665 29.3846 14.6102 29.4272 15.0225C29.4753 15.4883 29.5 15.9608 29.5 16.4388C29.5 23.9284 23.4558 30 16 30C8.54416 30 2.5 23.9284 2.5 16.4388C2.5 9.59364 7.54774 3.93451 14.1084 3.00978C14.5168 2.95221 14.9186 3.15248 15.12 3.51407ZM12.1002 5.56753C7.6686 7.17192 4.5 11.4343 4.5 16.4388C4.5 22.8189 9.64873 27.9909 16 27.9909C21.9623 27.9909 26.8648 23.433 27.443 17.5966C25.7314 18.975 23.5577 19.8006 21.1922 19.8006C15.6694 19.8006 11.1922 15.3032 11.1922 9.7553C11.1922 8.26129 11.5174 6.84255 12.1002 5.56753Z" fill="#2B2D33"/>
</svg>
