<svg width="31" height="30" viewBox="0 0 31 30" fill="none" xmlns="http://www.w3.org/2000/svg">
<path d="M19.3951 4.04685C17.3164 3.30799 15.0736 3.17697 12.9287 3.66379V3.65185L12.4555 3.78027C10.5504 4.29728 8.80822 5.29093 7.39334 6.66755C5.97846 8.04418 4.93744 9.75843 4.36842 11.6487C3.7994 13.539 3.72112 15.5431 4.14095 17.472C4.56079 19.4009 5.46491 21.1912 6.7681 22.674C8.07129 24.1567 9.73061 25.2833 11.5897 25.9473C13.4487 26.6114 15.4462 26.7911 17.3939 26.4695C19.3416 26.1479 21.1754 25.3356 22.7223 24.1092C24.2682 22.8836 25.4767 21.2848 26.2342 19.4633C26.31 19.2902 26.3508 19.1038 26.3542 18.9149C26.3575 18.7244 26.3228 18.5352 26.2521 18.3584C26.1813 18.1815 26.0759 18.0206 25.9421 17.8851C25.8083 17.7495 25.6488 17.6421 25.4729 17.569C25.297 17.496 25.1082 17.4589 24.9178 17.4598C24.7273 17.4607 24.5389 17.4997 24.3637 17.5744C24.1885 17.6491 24.03 17.7581 23.8975 17.895C23.7661 18.0307 23.6629 18.1911 23.5939 18.367C22.8412 20.1768 21.5037 21.6821 19.7949 22.6425C18.085 23.6035 16.1021 23.9632 14.1636 23.6642C12.2251 23.3651 10.4429 22.4245 9.10211 20.9928C7.76134 19.5612 6.93948 17.7212 6.76801 15.7672C6.59654 13.8133 7.08537 11.8583 8.15631 10.215C9.22724 8.57166 10.8184 7.33503 12.6752 6.70289C14.532 6.07076 16.5472 6.07966 18.3983 6.72816C20.0275 7.29889 21.4467 8.33597 22.4838 9.70303H20.7734C20.3942 9.70303 20.0305 9.85366 19.7624 10.1218C19.4943 10.3899 19.3437 10.7535 19.3437 11.1327C19.3437 11.5119 19.4943 11.8756 19.7624 12.1437C20.0305 12.4118 20.3942 12.5624 20.7734 12.5624H26.125C26.6773 12.5624 27.125 12.1147 27.125 11.5624V6.2108C27.125 5.83162 26.9744 5.46797 26.7063 5.19985C26.4381 4.93173 26.0745 4.7811 25.6953 4.7811C25.3161 4.7811 24.9525 4.93173 24.6844 5.19985C24.4162 5.46797 24.2656 5.83162 24.2656 6.2108V7.36273C22.9578 5.86214 21.2821 4.71758 19.3951 4.04685Z" fill="#2B2D33"/>
</svg>
