<svg width="31" height="30" viewBox="0 0 31 30" fill="none" xmlns="http://www.w3.org/2000/svg">
<path fill-rule="evenodd" clip-rule="evenodd" d="M4.29168 9.36377C4.29168 8.53534 4.96325 7.86377 5.79168 7.86377H24.5417C25.3701 7.86377 26.0417 8.53534 26.0417 9.36377C26.0417 10.1922 25.3701 10.8638 24.5417 10.8638H5.79168C4.96325 10.8638 4.29168 10.1922 4.29168 9.36377Z" fill="#2B2D33" stroke="#2B2D33" stroke-linecap="round"/>
<path fill-rule="evenodd" clip-rule="evenodd" d="M19.3599 5.30566C20.1883 5.30566 20.8599 5.97724 20.8599 6.80566V12.0557C20.8599 12.8841 20.1883 13.5557 19.3599 13.5557C18.5314 13.5557 17.8599 12.8841 17.8599 12.0557V6.80566C17.8599 5.97724 18.5314 5.30566 19.3599 5.30566Z" fill="#2B2D33" stroke="#2B2D33" stroke-linecap="round"/>
<path fill-rule="evenodd" clip-rule="evenodd" d="M4.29168 22.1138C4.29168 21.2853 4.96325 20.6138 5.79168 20.6138H24.5417C25.3701 20.6138 26.0417 21.2853 26.0417 22.1138C26.0417 22.9422 25.3701 23.6138 24.5417 23.6138H5.79168C4.96325 23.6138 4.29168 22.9422 4.29168 22.1138Z" fill="#2B2D33" stroke="#2B2D33" stroke-linecap="round"/>
<path fill-rule="evenodd" clip-rule="evenodd" d="M11.7235 18.0557C12.5519 18.0557 13.2235 18.7272 13.2235 19.5557V24.8057C13.2235 25.6341 12.5519 26.3057 11.7235 26.3057C10.8951 26.3057 10.2235 25.6341 10.2235 24.8057V19.5557C10.2235 18.7272 10.8951 18.0557 11.7235 18.0557Z" fill="#2B2D33" stroke="#2B2D33" stroke-linecap="round"/>
</svg>
