<svg width="18" height="21" viewBox="0 0 18 21" fill="none" xmlns="http://www.w3.org/2000/svg">
<path d="M9.75 8C9.75 7.58579 9.41421 7.25 9 7.25C8.58579 7.25 8.25 7.58579 8.25 8V11.5C8.25 11.9142 8.58579 12.25 9 12.25C9.41421 12.25 9.75 11.9142 9.75 11.5V8Z" fill="white"/>
<path fill-rule="evenodd" clip-rule="evenodd" d="M6.75 1C6.75 0.585786 7.08579 0.25 7.5 0.25H10.5C10.9142 0.25 11.25 0.585786 11.25 1C11.25 1.41421 10.9142 1.75 10.5 1.75H9.75V3.03081C11.3251 3.16075 12.7853 3.69632 14.0257 4.53281L15.0387 3.47936C15.3259 3.18079 15.8006 3.17151 16.0992 3.45862C16.3978 3.74574 16.4071 4.22052 16.1199 4.51908L15.1998 5.47595C16.9247 7.11563 18 9.43224 18 12C18 16.9706 13.9706 21 9 21C4.02944 21 0 16.9706 0 12C0 9.41167 1.09263 7.07853 2.84181 5.43668L1.95941 4.51908C1.6723 4.22052 1.68158 3.74574 1.98014 3.45862C2.2787 3.17151 2.75349 3.18079 3.0406 3.47936L4.02257 4.50049C5.25254 3.68253 6.69524 3.15907 8.25 3.03081V1.75H7.5C7.08579 1.75 6.75 1.41421 6.75 1ZM9 19.5C13.1421 19.5 16.5 16.1421 16.5 12C16.5 7.85786 13.1421 4.5 9 4.5C4.85786 4.5 1.5 7.85786 1.5 12C1.5 16.1421 4.85786 19.5 9 19.5Z" fill="white"/>
</svg>
