<svg width="28" height="27" viewBox="0 0 28 27" fill="none" xmlns="http://www.w3.org/2000/svg">
<path fill-rule="evenodd" clip-rule="evenodd" d="M13.2045 0.514559C13.4059 0.876153 13.3656 1.32487 13.1031 1.64445C11.9616 3.0339 11.2767 4.81316 11.2767 6.75579C11.2767 11.1941 14.8584 14.7921 19.2767 14.7921C21.9145 14.7921 24.2541 13.5107 25.713 11.5294C25.9585 11.1961 26.3825 11.0485 26.7805 11.1578C27.1786 11.267 27.469 11.6107 27.5117 12.023C27.5598 12.4888 27.5845 12.9613 27.5845 13.4393C27.5845 20.9289 21.5403 27.0005 14.0845 27.0005C6.62863 27.0005 0.584473 20.9289 0.584473 13.4393C0.584473 6.59413 5.63222 0.934994 12.1928 0.010269C12.6013 -0.047306 13.0031 0.152965 13.2045 0.514559ZM10.1847 2.56801C5.75307 4.17241 2.58447 8.43476 2.58447 13.4393C2.58447 19.8193 7.7332 24.9914 14.0845 24.9914C20.0467 24.9914 24.9492 20.4335 25.5274 14.5971C23.8158 15.9755 21.6422 16.8011 19.2767 16.8011C13.7538 16.8011 9.27667 12.3037 9.27667 6.75579C9.27667 5.26178 9.60184 3.84304 10.1847 2.56801Z" fill="white"/>
</svg>
