<svg width="24" height="24" viewBox="0 0 24 24" fill="none" xmlns="http://www.w3.org/2000/svg">
<path d="M12 0C12.4142 0 12.75 0.335786 12.75 0.749999V4.08333C12.75 4.49754 12.4142 4.83333 12 4.83333C11.5858 4.83333 11.25 4.49754 11.25 4.08333V0.749999C11.25 0.335786 11.5858 0 12 0Z" fill="white"/>
<path fill-rule="evenodd" clip-rule="evenodd" d="M12 17.0001C14.7614 17.0001 17 14.7615 17 12.0001C17 9.23868 14.7614 7.00011 12 7.00011C9.23855 7.00011 6.99997 9.23868 6.99997 12.0001C6.99997 14.7615 9.23855 17.0001 12 17.0001ZM12 15.5001C13.933 15.5001 15.5 13.9331 15.5 12.0001C15.5 10.0671 13.933 8.50011 12 8.50011C10.067 8.50011 8.49997 10.0671 8.49997 12.0001C8.49997 13.9331 10.067 15.5001 12 15.5001Z" fill="white"/>
<path d="M12.75 19.9171C12.75 19.5029 12.4142 19.1671 12 19.1671C11.5858 19.1671 11.25 19.5029 11.25 19.9171V23.2504C11.25 23.6646 11.5858 24.0004 12 24.0004C12.4142 24.0004 12.75 23.6646 12.75 23.2504V19.9171Z" fill="white"/>
<path d="M0 12C0 11.5858 0.335786 11.25 0.749999 11.25H4.08333C4.49754 11.25 4.83333 11.5858 4.83333 12C4.83333 12.4142 4.49754 12.75 4.08333 12.75H0.749999C0.335786 12.75 0 12.4142 0 12Z" fill="white"/>
<path d="M19.9167 11.25C19.5025 11.25 19.1667 11.5858 19.1667 12C19.1667 12.4142 19.5025 12.75 19.9167 12.75H23.25C23.6642 12.75 24 12.4142 24 12C24 11.5858 23.6642 11.25 23.25 11.25H19.9167Z" fill="white"/>
<path d="M20.4853 3.51494C20.7782 3.80784 20.7782 4.28271 20.4853 4.5756L18.1283 6.93262C17.8354 7.22551 17.3605 7.22551 17.0676 6.93262C16.7747 6.63973 16.7747 6.16486 17.0676 5.87196L19.4247 3.51494C19.7176 3.22205 20.1924 3.22205 20.4853 3.51494Z" fill="white"/>
<path d="M6.93242 18.1287C7.22531 17.8358 7.22531 17.3609 6.93242 17.068C6.63953 16.7751 6.16465 16.7751 5.87176 17.068L3.51474 19.425C3.22185 19.7179 3.22185 20.1928 3.51474 20.4857C3.80763 20.7786 4.28251 20.7786 4.5754 20.4857L6.93242 18.1287Z" fill="white"/>
<path d="M3.51481 3.51483C3.8077 3.22194 4.28257 3.22194 4.57547 3.51483L6.93248 5.87185C7.22538 6.16474 7.22538 6.63962 6.93248 6.93251C6.63959 7.2254 6.16472 7.2254 5.87183 6.93251L3.51481 4.57549C3.22191 4.2826 3.22191 3.80772 3.51481 3.51483Z" fill="white"/>
<path d="M18.1283 17.0675C17.8354 16.7747 17.3606 16.7747 17.0677 17.0675C16.7748 17.3604 16.7748 17.8353 17.0677 18.1282L19.4247 20.4852C19.7176 20.7781 20.1924 20.7781 20.4853 20.4852C20.7782 20.1923 20.7782 19.7175 20.4853 19.4246L18.1283 17.0675Z" fill="white"/>
</svg>
