<svg width="32" height="32" viewBox="0 0 32 32" fill="none" xmlns="http://www.w3.org/2000/svg">
<path d="M16 -0.000488281C16.5523 -0.000488281 17 0.447227 17 0.999512V5.44396C17 5.99624 16.5523 6.44396 16 6.44396C15.4477 6.44396 15 5.99624 15 5.44396V0.999512C15 0.447227 15.4477 -0.000488281 16 -0.000488281Z" fill="white"/>
<path fill-rule="evenodd" clip-rule="evenodd" d="M16 22.6663C19.6819 22.6663 22.6666 19.6816 22.6666 15.9997C22.6666 12.3178 19.6819 9.33301 16 9.33301C12.3181 9.33301 9.33331 12.3178 9.33331 15.9997C9.33331 19.6816 12.3181 22.6663 16 22.6663ZM16 20.6663C18.5773 20.6663 20.6666 18.577 20.6666 15.9997C20.6666 13.4223 18.5773 11.333 16 11.333C13.4227 11.333 11.3333 13.4223 11.3333 15.9997C11.3333 18.577 13.4227 20.6663 16 20.6663Z" fill="white"/>
<path d="M17 26.5557C17 26.0034 16.5523 25.5557 16 25.5557C15.4477 25.5557 15 26.0034 15 26.5557V31.0001C15 31.5524 15.4477 32.0001 16 32.0001C16.5523 32.0001 17 31.5524 17 31.0001V26.5557Z" fill="white"/>
<path d="M0 15.9995C0 15.4472 0.447715 14.9995 1 14.9995H5.44444C5.99673 14.9995 6.44444 15.4472 6.44444 15.9995C6.44444 16.5518 5.99673 16.9995 5.44444 16.9995H1C0.447715 16.9995 0 16.5518 0 15.9995Z" fill="white"/>
<path d="M26.5556 14.9995C26.0033 14.9995 25.5556 15.4472 25.5556 15.9995C25.5556 16.5518 26.0033 16.9995 26.5556 16.9995H31C31.5523 16.9995 32 16.5518 32 15.9995C32 15.4472 31.5523 14.9995 31 14.9995H26.5556Z" fill="white"/>
<path d="M27.3138 4.68611C27.7043 5.07663 27.7043 5.7098 27.3138 6.10032L24.1711 9.24302C23.7806 9.63354 23.1474 9.63354 22.7569 9.24302C22.3664 8.8525 22.3664 8.21933 22.7569 7.82881L25.8996 4.68611C26.2901 4.29559 26.9233 4.29559 27.3138 4.68611Z" fill="white"/>
<path d="M9.24324 24.1711C9.63376 23.7806 9.63376 23.1474 9.24324 22.7569C8.85272 22.3664 8.21955 22.3664 7.82903 22.7569L4.68633 25.8996C4.29581 26.2901 4.2958 26.9233 4.68633 27.3138C5.07685 27.7043 5.71002 27.7043 6.10054 27.3138L9.24324 24.1711Z" fill="white"/>
<path d="M4.68642 4.68596C5.07694 4.29544 5.7101 4.29544 6.10063 4.68596L9.24333 7.82866C9.63385 8.21918 9.63385 8.85235 9.24333 9.24287C8.8528 9.63339 8.21964 9.63339 7.82911 9.24287L4.68642 6.10017C4.29589 5.70965 4.29589 5.07648 4.68642 4.68596Z" fill="white"/>
<path d="M24.1711 22.7563C23.7806 22.3657 23.1474 22.3657 22.7569 22.7563C22.3664 23.1468 22.3664 23.78 22.7569 24.1705L25.8996 27.3132C26.2901 27.7037 26.9233 27.7037 27.3138 27.3132C27.7043 26.9227 27.7043 26.2895 27.3138 25.899L24.1711 22.7563Z" fill="white"/>
</svg>
