<svg width="33" height="33" viewBox="0 0 33 33" fill="none" xmlns="http://www.w3.org/2000/svg">
<path d="M16.0844 0.500183C16.6367 0.500183 17.0844 0.947898 17.0844 1.50018V5.94463C17.0844 6.49691 16.6367 6.94463 16.0844 6.94463C15.5322 6.94463 15.0844 6.49691 15.0844 5.94463V1.50018C15.0844 0.947898 15.5322 0.500183 16.0844 0.500183Z" fill="white"/>
<path fill-rule="evenodd" clip-rule="evenodd" d="M16.0844 23.167C19.7663 23.167 22.7511 20.1822 22.7511 16.5003C22.7511 12.8184 19.7663 9.83368 16.0844 9.83368C12.4025 9.83368 9.41776 12.8184 9.41776 16.5003C9.41776 20.1822 12.4025 23.167 16.0844 23.167ZM16.0844 21.167C18.6618 21.167 20.7511 19.0777 20.7511 16.5003C20.7511 13.923 18.6618 11.8337 16.0844 11.8337C13.5071 11.8337 11.4178 13.923 11.4178 16.5003C11.4178 19.0777 13.5071 21.167 16.0844 21.167Z" fill="white"/>
<path d="M17.0844 27.0563C17.0844 26.5041 16.6367 26.0563 16.0844 26.0563C15.5322 26.0563 15.0844 26.5041 15.0844 27.0563V31.5008C15.0844 32.0531 15.5322 32.5008 16.0844 32.5008C16.6367 32.5008 17.0844 32.0531 17.0844 31.5008V27.0563Z" fill="white"/>
<path d="M0.0844421 16.5002C0.0844421 15.9479 0.532157 15.5002 1.08444 15.5002H5.52889C6.08117 15.5002 6.52889 15.9479 6.52889 16.5002C6.52889 17.0525 6.08117 17.5002 5.52889 17.5002H1.08444C0.532157 17.5002 0.0844421 17.0525 0.0844421 16.5002Z" fill="white"/>
<path d="M26.64 15.5002C26.0878 15.5002 25.64 15.9479 25.64 16.5002C25.64 17.0525 26.0878 17.5002 26.64 17.5002H31.0845C31.6368 17.5002 32.0845 17.0525 32.0845 16.5002C32.0845 15.9479 31.6368 15.5002 31.0845 15.5002H26.64Z" fill="white"/>
<path d="M27.3982 5.18678C27.7888 5.57731 27.7888 6.21047 27.3982 6.601L24.2555 9.74369C23.865 10.1342 23.2319 10.1342 22.8413 9.74369C22.4508 9.35317 22.4508 8.72 22.8413 8.32948L25.984 5.18678C26.3745 4.79626 27.0077 4.79626 27.3982 5.18678Z" fill="white"/>
<path d="M9.32768 24.6718C9.71821 24.2813 9.71821 23.6481 9.32768 23.2576C8.93716 22.8671 8.30399 22.8671 7.91347 23.2576L4.77077 26.4003C4.38025 26.7908 4.38025 27.424 4.77077 27.8145C5.1613 28.205 5.79446 28.205 6.18499 27.8145L9.32768 24.6718Z" fill="white"/>
<path d="M4.77086 5.18663C5.16138 4.79611 5.79455 4.79611 6.18507 5.18663L9.32777 8.32933C9.71829 8.71985 9.71829 9.35302 9.32777 9.74354C8.93724 10.1341 8.30408 10.1341 7.91355 9.74354L4.77086 6.60084C4.38033 6.21032 4.38033 5.57716 4.77086 5.18663Z" fill="white"/>
<path d="M24.2556 23.2569C23.865 22.8664 23.2319 22.8664 22.8414 23.2569C22.4508 23.6475 22.4508 24.2806 22.8414 24.6712L25.9841 27.8139C26.3746 28.2044 27.0077 28.2044 27.3983 27.8139C27.7888 27.4233 27.7888 26.7902 27.3983 26.3996L24.2556 23.2569Z" fill="white"/>
</svg>
